<?xml version="1.0" standalone="no"?>
<!DOCTYPE svg PUBLIC "-//W3C//DTD SVG 20010904//EN"
 "http://www.w3.org/TR/2001/REC-SVG-20010904/DTD/svg10.dtd">
<svg version="1.0" xmlns="http://www.w3.org/2000/svg"
 width="1299.000000pt" height="1299.000000pt" viewBox="0 0 1299.000000 1299.000000"
 preserveAspectRatio="xMidYMid meet">
<metadata>
Created by potrace 1.14, written by Peter Selinger 2001-2017
</metadata>
<g transform="translate(0.000000,1299.000000) scale(0.100000,-0.100000)"
fill="#000000" stroke="none">
<path d="M6178 12984 c-2 -1 -48 -5 -103 -8 -55 -3 -122 -8 -150 -11 -27 -3
-72 -7 -100 -9 -57 -5 -134 -14 -185 -22 -19 -3 -51 -8 -70 -10 -56 -7 -93
-13 -120 -18 -14 -3 -41 -8 -60 -10 -43 -6 -87 -14 -120 -22 -14 -3 -38 -8
-55 -11 -155 -24 -557 -133 -815 -221 -403 -137 -826 -329 -1149 -521 -57 -34
-105 -61 -107 -61 -6 0 -148 -93 -154 -100 -3 -4 -16 -13 -30 -20 -29 -15
-173 -110 -180 -119 -3 -3 -25 -19 -50 -36 -25 -16 -58 -40 -75 -53 -16 -12
-40 -31 -53 -40 -13 -9 -37 -28 -55 -42 -18 -15 -72 -57 -120 -94 -48 -37 -98
-78 -111 -89 -13 -12 -48 -42 -77 -67 -190 -163 -506 -479 -644 -645 -22 -27
-54 -62 -70 -80 -17 -17 -43 -49 -60 -71 -37 -49 -40 -53 -68 -85 -12 -14 -29
-36 -37 -49 -8 -13 -24 -33 -35 -46 -11 -12 -27 -32 -35 -44 -8 -12 -25 -34
-37 -48 -13 -15 -23 -33 -23 -39 0 -7 -4 -13 -9 -13 -5 0 -24 -25 -42 -55 -18
-30 -37 -55 -41 -55 -4 0 -8 -5 -8 -10 0 -6 -9 -20 -20 -32 -11 -12 -20 -28
-20 -35 0 -7 -4 -13 -10 -13 -5 0 -10 -7 -10 -15 0 -8 -4 -15 -10 -15 -5 0
-10 -7 -10 -15 0 -8 -4 -15 -10 -15 -5 0 -10 -4 -10 -10 0 -5 -24 -47 -54 -92
-30 -46 -64 -103 -77 -128 -13 -25 -25 -47 -28 -50 -5 -4 -23 -36 -55 -95 -6
-11 -15 -23 -21 -27 -7 -5 -7 -8 0 -8 6 0 6 -3 -1 -8 -5 -4 -34 -56 -64 -117
-29 -60 -61 -121 -71 -135 -9 -14 -17 -29 -17 -33 -1 -4 -12 -31 -25 -60 -54
-114 -68 -147 -68 -152 0 -2 -11 -25 -24 -50 -14 -25 -25 -47 -25 -50 0 -3 -6
-20 -13 -38 -8 -17 -20 -50 -27 -72 -7 -22 -16 -44 -20 -50 -4 -5 -13 -28 -20
-50 -7 -22 -15 -44 -19 -50 -3 -5 -6 -13 -7 -17 -1 -5 -3 -10 -4 -13 -1 -3 -4
-9 -5 -15 -1 -5 -4 -12 -5 -15 -1 -3 -4 -9 -5 -15 -1 -5 -4 -12 -5 -15 -1 -3
-3 -8 -5 -12 -1 -5 -4 -15 -8 -23 -12 -30 -69 -206 -73 -225 -2 -11 -8 -31
-13 -45 -9 -24 -20 -70 -20 -80 0 -3 -5 -18 -11 -35 -7 -16 -13 -37 -16 -45
-2 -8 -17 -67 -33 -130 -17 -63 -33 -133 -37 -155 -3 -22 -7 -42 -9 -46 -2 -3
-7 -19 -9 -35 -3 -16 -8 -40 -11 -54 -8 -39 -27 -143 -31 -165 -3 -20 -7 -45
-18 -115 -3 -19 -8 -51 -10 -70 -3 -19 -7 -51 -10 -70 -6 -43 -15 -119 -22
-185 -2 -27 -7 -68 -9 -91 -14 -136 -20 -307 -19 -594 0 -323 4 -415 29 -660
14 -132 16 -147 40 -310 2 -19 12 -75 20 -125 9 -49 18 -103 21 -120 29 -167
146 -621 199 -767 14 -38 22 -68 19 -68 -4 0 -2 -6 3 -12 6 -7 21 -44 33 -83
83 -256 278 -690 437 -972 35 -62 63 -115 63 -117 0 -3 14 -25 30 -49 17 -25
30 -47 30 -51 0 -3 39 -65 86 -138 117 -180 138 -212 145 -218 3 -3 27 -36 54
-75 27 -38 53 -72 57 -73 5 -2 8 -10 8 -18 0 -8 5 -14 10 -14 6 0 10 -5 10
-11 0 -7 11 -22 25 -35 14 -13 25 -27 25 -33 0 -5 3 -11 8 -13 4 -1 23 -23 42
-48 19 -25 39 -50 45 -57 5 -6 21 -26 35 -44 14 -18 36 -44 48 -58 13 -15 43
-48 65 -74 99 -116 152 -171 312 -332 167 -167 212 -209 329 -310 32 -27 71
-61 86 -75 15 -14 42 -36 60 -50 18 -14 42 -33 54 -42 23 -19 23 -19 86 -68
25 -19 50 -39 56 -45 6 -5 22 -17 34 -25 12 -8 28 -21 36 -28 7 -6 15 -12 19
-12 4 0 13 -6 20 -12 33 -30 45 -38 55 -38 5 0 10 -4 10 -10 0 -5 6 -10 14
-10 8 0 16 -4 18 -9 4 -11 167 -121 179 -121 5 0 9 -4 9 -10 0 -5 7 -10 15
-10 8 0 15 -5 15 -11 0 -5 4 -8 9 -5 5 4 11 3 13 -2 4 -11 135 -92 148 -92 5
0 10 -4 10 -10 0 -5 5 -10 10 -10 6 0 27 -11 48 -23 65 -41 133 -79 258 -143
67 -34 128 -65 135 -70 8 -5 16 -9 19 -10 3 0 34 -14 70 -31 105 -49 165 -76
170 -77 3 -1 25 -11 50 -23 38 -18 65 -29 90 -38 3 -1 19 -7 35 -14 17 -6 44
-16 60 -22 17 -6 42 -17 58 -25 15 -9 27 -13 27 -9 0 3 12 -3 27 -12 15 -10
28 -17 30 -15 2 1 5 1 8 1 12 -3 21 -6 35 -11 49 -19 143 -50 158 -53 9 -2 33
-10 53 -19 20 -8 51 -18 69 -21 18 -3 41 -10 51 -16 11 -5 19 -8 19 -5 0 3 16
-2 35 -10 19 -8 35 -12 35 -9 0 2 12 0 28 -6 15 -6 34 -12 42 -14 8 -3 42 -12
75 -21 58 -15 71 -19 116 -29 11 -2 28 -6 37 -9 9 -3 31 -8 47 -11 17 -2 41
-7 55 -10 80 -18 110 -24 149 -31 18 -3 43 -8 55 -10 11 -3 35 -7 51 -9 17 -3
41 -7 55 -10 14 -3 45 -8 70 -11 25 -3 56 -7 70 -10 24 -4 40 -6 158 -20 269
-31 396 -37 742 -38 310 -1 467 6 675 28 22 2 72 7 110 11 39 3 77 8 85 10 8
2 38 7 65 10 28 3 102 14 165 26 63 11 129 22 145 25 52 9 390 86 397 91 5 2
18 6 29 8 141 27 776 243 814 276 5 5 15 9 22 9 47 0 774 362 803 400 3 3 20
12 38 19 17 8 32 17 32 22 0 4 8 10 18 13 10 4 54 30 98 59 44 28 92 58 107
66 15 8 27 18 27 23 0 4 4 8 10 8 11 0 282 194 361 259 32 25 85 69 120 96 35
28 71 57 79 65 9 8 40 35 70 60 102 86 166 146 335 315 162 162 220 224 310
330 22 25 49 57 60 69 40 45 143 173 170 211 11 15 28 35 38 44 9 8 17 21 17
27 0 7 4 14 8 16 5 1 26 28 48 58 21 30 47 64 56 74 10 11 18 24 18 29 0 4 6
15 13 22 29 33 37 45 37 54 0 5 3 11 8 13 10 5 102 146 102 158 0 5 5 10 10
10 6 0 10 7 10 15 0 8 3 15 8 15 4 0 16 17 27 38 11 20 22 39 26 42 3 3 9 12
12 20 4 8 15 29 26 45 10 17 27 46 38 65 11 19 32 55 46 80 15 25 57 106 94
180 37 74 71 136 75 138 5 2 8 8 8 13 0 6 11 34 24 62 13 29 34 75 46 102 12
28 31 69 41 92 18 40 40 92 44 103 1 3 5 14 10 25 4 11 20 52 35 90 15 39 31
79 35 90 5 11 9 22 10 25 1 3 4 12 8 20 11 29 95 286 108 330 7 25 14 50 15
55 2 6 5 17 6 25 2 8 7 21 11 28 5 6 6 12 2 12 -3 0 -1 8 4 19 6 10 13 33 16
51 3 18 10 40 14 49 5 9 12 34 16 56 5 22 9 45 11 50 8 28 17 65 25 105 12 58
17 79 24 110 3 14 8 39 10 55 3 17 8 37 10 45 2 8 6 31 9 50 3 19 8 46 11 60
2 14 7 43 10 65 3 22 8 52 10 68 8 47 13 80 20 132 3 28 8 64 10 82 3 18 7 63
10 100 3 37 7 82 10 98 12 88 19 285 19 580 0 292 -4 415 -20 575 -3 25 -7 63
-9 85 -5 53 -14 124 -26 215 -16 128 -19 144 -24 170 -7 34 -26 139 -31 170
-2 14 -8 48 -14 75 -6 28 -13 61 -16 75 -45 240 -199 742 -318 1035 -32 77
-59 145 -60 150 -14 49 -235 498 -248 503 -4 2 -8 8 -8 14 0 6 -19 44 -42 86
-24 41 -56 98 -72 126 -81 145 -392 604 -455 673 -9 10 -39 47 -67 83 -27 36
-59 76 -71 90 -23 26 -29 34 -103 120 -154 181 -475 502 -644 645 -26 22 -62
53 -79 69 -18 16 -48 41 -67 55 -19 14 -44 34 -55 43 -11 9 -30 25 -42 35 -11
10 -31 25 -43 33 -13 8 -30 22 -39 31 -9 8 -32 26 -51 39 -19 14 -39 28 -45
32 -50 40 -106 78 -114 78 -5 0 -11 4 -13 8 -4 12 -136 102 -148 102 -5 0 -10
5 -10 10 0 6 -7 10 -15 10 -8 0 -15 5 -15 11 0 5 -4 7 -10 4 -5 -3 -10 -1 -10
4 0 6 -7 11 -15 11 -8 0 -15 5 -15 10 0 6 -7 10 -15 10 -8 0 -15 5 -15 10 0 6
-7 10 -15 10 -8 0 -15 4 -15 10 0 5 -11 12 -25 16 -14 3 -25 10 -25 15 0 5 -4
9 -10 9 -5 0 -35 16 -66 36 -30 19 -69 40 -85 46 -16 5 -29 14 -29 19 0 5 -6
9 -14 9 -7 0 -19 7 -26 15 -7 8 -16 13 -20 10 -5 -3 -10 -2 -12 2 -3 8 -384
203 -393 202 -3 0 -29 11 -58 24 -29 14 -74 35 -102 47 -27 12 -64 28 -82 36
-17 8 -37 14 -45 14 -8 0 -18 4 -24 8 -5 5 -38 19 -74 32 -36 13 -71 28 -77
33 -7 5 -13 6 -13 2 0 -4 -7 -2 -15 5 -8 7 -15 9 -15 6 0 -4 -9 -2 -21 4 -11
6 -28 13 -37 15 -9 2 -69 22 -132 44 -63 22 -126 42 -140 45 -14 3 -72 19
-130 36 -58 17 -109 32 -115 34 -5 1 -19 5 -30 9 -11 3 -31 8 -45 11 -14 3
-35 7 -47 10 -36 9 -66 16 -93 21 -14 3 -35 7 -47 10 -13 3 -33 7 -45 10 -13
3 -34 7 -48 10 -14 3 -36 7 -50 10 -13 2 -40 7 -60 10 -20 3 -47 8 -60 10 -36
7 -70 13 -115 20 -23 3 -50 7 -61 9 -11 2 -47 7 -79 11 -33 3 -73 8 -90 10
-85 11 -213 24 -310 31 -64 5 -763 13 -767 8z"/>
</g>
</svg>
